<?xml version="1.0" encoding="UTF-8"?>
<svg version="1.1" xmlns="http://www.w3.org/2000/svg" width="512" height="512">
<path d="M0 0 C1.11292923 -0.00014603 2.22585846 -0.00029205 3.37251282 -0.0004425 C7.03555275 0.0002518 10.69854126 0.0080216 14.36157227 0.01586914 C16.90747551 0.01773503 19.45337911 0.01915813 21.99928284 0.02015686 C28.005608 0.02357936 34.01191124 0.03145355 40.01822764 0.04150635 C46.85985337 0.05270717 53.70148001 0.05818792 60.54311264 0.06320179 C74.60891139 0.0736373 88.67469395 0.09121194 102.74047852 0.11352539 C102.74194508 0.90497955 102.74341164 1.69643372 102.74492264 2.51187134 C102.78199996 21.78385542 102.84102699 41.05565837 102.92438126 60.32749939 C102.96416366 69.64729088 102.99656021 78.96699803 103.01147461 88.28686523 C103.02449527 96.41157668 103.05147049 104.53610249 103.09509158 112.66070938 C103.11769712 116.96129995 103.13338974 121.26166164 103.13236237 125.56231689 C103.13161521 129.61390356 103.14958785 133.66498444 103.18164635 137.7164402 C103.19013427 139.19983423 103.19190278 140.68328507 103.1862812 142.16669273 C103.10204804 154.35737307 103.10204804 154.35737307 109.11676407 164.62031555 C113.32799556 168.46484269 117.42942551 169.84686543 122.99047852 170.48852539 C130.45179185 169.74239406 137.06908311 166.02507776 143.66625977 162.62524414 C144.26733551 162.31576843 144.86841125 162.00629272 145.48770142 161.68743896 C147.97962395 160.4001419 150.46928039 159.10914046 152.94970703 157.79980469 C154.78643657 156.8330674 156.63154478 155.88425503 158.47875977 154.93774414 C159.5619751 154.37144287 160.64519043 153.8051416 161.76123047 153.22167969 C165.17169035 151.95313282 166.34692666 151.91910151 169.74047852 153.11352539 C172.16634459 154.24902964 174.51576044 155.42076576 176.87719727 156.67602539 C178.27337687 157.39796926 179.66987157 158.11930404 181.06665039 158.84008789 C183.24448463 159.97218009 185.41941765 161.10899493 187.58886719 162.25708008 C201.1019266 169.66925629 201.1019266 169.66925629 216.05297852 168.98852539 C221.56410158 166.54407564 225.02156757 162.41540174 227.74047852 157.11352539 C228.85250338 153.67071424 228.87801886 150.42792303 228.8986969 146.82403564 C228.90848572 145.53117142 228.91827454 144.23830719 228.92835999 142.90626526 C228.93426382 141.47567786 228.94007429 140.04509007 228.94580078 138.61450195 C228.95538202 137.10653924 228.96539225 135.59857919 228.97579956 134.09062195 C229.00282808 129.99803123 229.02384876 125.90542901 229.04380155 121.8127985 C229.06567375 117.53531359 229.09305641 113.25786407 229.11985779 108.98040771 C229.16976797 100.88092857 229.21471302 92.78142977 229.25788015 84.68191218 C229.30726683 75.46068978 229.36217966 66.23950289 229.41755974 57.01831484 C229.53135408 38.05008466 229.63819868 19.08182097 229.74047852 0.11352539 C231.98528404 0.25650334 234.22977497 0.40442653 236.47412109 0.55444336 C237.7240535 0.63628876 238.9739859 0.71813416 240.26179504 0.80245972 C251.22508386 1.78280267 260.97424376 6.64806321 269.74047852 13.11352539 C270.37211914 13.56211914 271.00375977 14.01071289 271.65454102 14.47290039 C284.34391804 24.32310173 292.0030139 40.2471208 294.4700017 55.83943939 C295.50819276 64.56823088 295.15350808 73.47274234 295.12866211 82.24633789 C295.13273327 84.66900875 295.13807819 87.09167774 295.14459229 89.51434326 C295.156797 95.3819605 295.15508649 101.24947176 295.14635436 107.11708593 C295.13954768 111.89066859 295.13867391 116.66421904 295.14192581 121.43780518 C295.14238551 122.12015578 295.14284521 122.80250639 295.14331884 123.50553429 C295.14427813 124.89220859 295.14525077 126.27888287 295.14623661 127.66555715 C295.15476798 140.63374256 295.1449919 153.6018641 295.12883551 166.57003903 C295.11543438 177.6698529 295.11776311 188.7695726 295.1315918 199.86938477 C295.1476876 212.79477167 295.15394422 225.72010275 295.14475501 238.64549828 C295.14379947 240.02674738 295.14285636 241.40799649 295.14192581 242.78924561 C295.14146299 243.46864515 295.14100016 244.1480447 295.14052331 244.84803212 C295.13794539 249.6095783 295.14227839 254.37108875 295.14936447 259.13262939 C295.15871264 265.55465893 295.15194929 271.97655328 295.1346817 278.3985672 C295.13073524 280.74702919 295.1318191 283.09550621 295.1384697 285.4439621 C295.21449267 315.03042943 295.21449267 315.03042943 288.05297852 328.36352539 C287.70267578 329.03262939 287.35237305 329.7017334 286.99145508 330.39111328 C278.6342323 345.8916292 265.35308374 356.54222509 248.55297852 361.86352539 C241.24348294 364.00531967 234.13733492 364.26097267 226.5778656 364.25396729 C225.56904156 364.25693841 224.56021752 364.25990953 223.52082306 364.26297069 C220.14798815 364.27162661 216.77518887 364.27316331 213.40234375 364.2746582 C210.98070704 364.27928861 208.55907105 364.28431358 206.13743591 364.28970337 C199.56274076 364.30280881 192.98805298 364.30930605 186.41334796 364.31371403 C182.30234382 364.31648278 178.191342 364.32072131 174.08033943 364.3252182 C162.68201947 364.33740688 151.28370136 364.34770657 139.88537502 364.35109329 C139.15667515 364.35131286 138.42797527 364.35153242 137.67719359 364.35175864 C136.58163263 364.35208606 136.58163263 364.35208606 135.46393913 364.35242009 C133.98409744 364.35286355 132.50425575 364.35331011 131.02441406 364.35375977 C130.29037246 364.3539812 129.55633085 364.35420263 128.80004556 364.35443076 C116.91797795 364.35837499 105.0359718 364.37581932 93.15392791 364.39911929 C80.93368217 364.42288754 68.71346719 364.43529765 56.49319798 364.43646121 C49.64054168 364.43737497 42.78796546 364.44305131 35.93533134 364.46128082 C29.48468656 364.47838133 23.03415282 364.47989368 16.58349037 364.47114182 C14.2237393 364.47037398 11.86397992 364.4746805 9.50424957 364.48460007 C-20.14491608 364.60186692 -20.14491608 364.60186692 -33.50952148 357.42602539 C-34.17790039 357.07717285 -34.8462793 356.72832031 -35.53491211 356.36889648 C-51.28006444 347.89922155 -61.68834465 334.85796305 -67.07202148 317.80102539 C-69.16297483 310.53971468 -69.40691438 303.45169122 -69.39996338 295.95091248 C-69.4029345 294.94208844 -69.40590562 293.9332644 -69.40896678 292.89386994 C-69.41762271 289.52103503 -69.41915941 286.14823575 -69.4206543 282.77539062 C-69.42528471 280.35375391 -69.43030967 277.93211793 -69.43569946 275.51048279 C-69.4488049 268.93578763 -69.45530214 262.36109985 -69.45971012 255.78639483 C-69.46247888 251.67539069 -69.4667174 247.56438887 -69.47121429 243.45338631 C-69.48340297 232.05506634 -69.49370266 220.65674824 -69.49708939 209.2584219 C-69.49730895 208.52972202 -69.49752852 207.80102215 -69.49775474 207.05024046 C-69.49797302 206.31986649 -69.49819129 205.58949252 -69.49841619 204.83698601 C-69.49885964 203.35714432 -69.4993062 201.87730263 -69.49975586 200.39746094 C-69.49997729 199.66341933 -69.50019872 198.92937772 -69.50042686 198.17309243 C-69.50437108 186.29102482 -69.52181542 174.40901868 -69.54511538 162.52697479 C-69.56888364 150.30672905 -69.58129374 138.08651407 -69.5824573 125.86624485 C-69.58337106 119.01358855 -69.5890474 112.16101234 -69.60727692 105.30837822 C-69.62437743 98.85773344 -69.62588978 92.4071997 -69.61713791 85.95653725 C-69.61637007 83.59678617 -69.62067659 81.2370268 -69.63059616 78.87729645 C-69.71200386 58.29458124 -68.11909564 40.96602669 -55.25952148 24.11352539 C-54.49639648 23.08227539 -53.73327148 22.05102539 -52.94702148 20.98852539 C-38.51187111 5.5462715 -20.55352378 -0.07099766 0 0 Z " fill="#000000" transform="translate(111.259521484375,41.886474609375)"/>
<path d="M0 0 C14.19 0 28.38 0 43 0 C43.06786661 36.3578319 43.12155448 72.71564534 43.15319599 109.07352762 C43.15694796 113.36916826 43.16083094 117.66480877 43.16479492 121.96044922 C43.16558185 122.81560793 43.16636878 123.67076665 43.16717956 124.55183926 C43.18022158 138.38535228 43.20386877 152.21882777 43.23145839 166.05231854 C43.25954613 180.25437 43.27618338 194.45640184 43.28226548 208.65847993 C43.28637494 217.41683085 43.29933867 226.17507567 43.3237494 234.93339393 C43.3396482 240.94517883 43.34439101 246.95690916 43.34050413 252.96871355 C43.33858901 256.43347876 43.3414552 259.89805902 43.35761642 263.36279106 C43.372606 267.129112 43.36892958 270.89498396 43.36076355 274.66131592 C43.36950207 275.74306398 43.3782406 276.82481205 43.38724393 277.93934035 C43.28479004 295.49702103 36.39471919 311.38601081 24.4375 324.1875 C13.58344332 334.5474418 -1.92619134 342.12966993 -17.09742451 342.12304783 C-18.61195917 342.1260344 -18.61195917 342.1260344 -20.15709049 342.12908131 C-21.81029742 342.12471205 -21.81029742 342.12471205 -23.49690247 342.12025452 C-24.67315412 342.12110894 -25.84940577 342.12196337 -27.06130141 342.12284368 C-30.32227115 342.12420579 -33.58320112 342.12108128 -36.84416616 342.11606562 C-40.36217521 342.1117467 -43.88018241 342.11320857 -47.39819336 342.1139679 C-53.49209342 342.11449221 -59.58598277 342.11135501 -65.67988014 342.10573006 C-74.49062956 342.09760262 -83.30137379 342.09499856 -92.11212655 342.09374207 C-106.40702936 342.09155351 -120.70192646 342.08489872 -134.99682617 342.07543945 C-148.88289359 342.06626028 -162.76895946 342.05918191 -176.6550293 342.05493164 C-177.51098341 342.05466892 -178.36693752 342.05440619 -179.24882964 342.05413551 C-183.54290491 342.05283047 -187.83698019 342.05156676 -192.13105547 342.05032361 C-227.75404122 342.03995709 -263.3770197 342.02206885 -299 342 C-299 327.81 -299 313.62 -299 299 C-295.53495972 298.99191315 -292.06991943 298.98382629 -288.49987793 298.97549438 C-256.72050442 298.90041037 -224.9411701 298.81552188 -193.1618515 298.71994839 C-188.99624757 298.70742961 -184.8306434 298.69499682 -180.66503906 298.68261719 C-179.83574664 298.68015119 -179.00645422 298.6776852 -178.15203172 298.67514448 C-164.72647175 298.63542712 -151.30090337 298.60267525 -137.87531894 298.57250018 C-124.09814387 298.54137974 -110.32100447 298.50276779 -96.5438695 298.45720994 C-88.04351516 298.42933707 -79.5431869 298.40729882 -71.04279917 298.39273749 C-65.21277295 298.38219063 -59.38279722 298.36436311 -53.55280906 298.34083296 C-50.18984292 298.32747415 -46.82700987 298.3183837 -43.46400833 298.31578636 C-39.81457088 298.3124628 -36.16537868 298.29698214 -32.51599121 298.2784729 C-31.45761032 298.28040763 -30.39922942 298.28234237 -29.30877638 298.28433573 C-20.99462337 298.22127725 -13.60535594 297.57785613 -7 292 C-0.48942833 283.9233719 -0.85099346 275.60088267 -0.84178162 265.64222717 C-0.83437465 263.93653971 -0.83437465 263.93653971 -0.82681805 262.19639391 C-0.81147287 258.39012668 -0.80309046 254.58387628 -0.79467773 250.77758789 C-0.7856399 248.0475223 -0.77512958 245.31746284 -0.76467896 242.58740234 C-0.742957 236.71181498 -0.72479694 230.83622533 -0.70907402 224.96061897 C-0.68633631 216.4655379 -0.65819895 207.97048141 -0.62875474 199.47542124 C-0.58112659 185.69187699 -0.5378495 171.90832266 -0.49731445 158.12475586 C-0.45793519 144.7373781 -0.41650316 131.35000927 -0.37231445 117.96264648 C-0.36822804 116.72430842 -0.36822804 116.72430842 -0.36405908 115.46095342 C-0.3503792 111.31926001 -0.33665901 107.17756674 -0.32291877 103.03587353 C-0.20902906 68.6906007 -0.10247191 34.34530872 0 0 Z " fill="#000000" transform="translate(416,117)"/>
<path d="M0 0 C14.19 0 28.38 0 43 0 C43 38.28 43 76.56 43 116 C38.83863626 114.61287875 35.56176004 113.32652984 31.75 111.375 C25.850395 108.73007642 22.48257241 108.08481331 16 109 C10.72 111.31 5.44 113.62 0 116 C0 77.72 0 39.44 0 0 Z " fill="#000000" transform="translate(256,42)"/>
</svg>
